<svg
  width="20"
  height="20"
  viewBox="0 0 20 20"
  fill="none"
  xmlns="http://www.w3.org/2000/svg"
>
                <path
    d="M6.43775 12.2972C6.82338 11.9887 7.38494 12.0489 7.69671 12.4303C7.69852 12.4324 7.70331 12.4379 7.71108 12.4464C7.72798 12.4649 7.75867 12.4972 7.80303 12.5387C7.8921 12.6222 8.03372 12.741 8.22698 12.8618C8.60993 13.1012 9.19689 13.35 9.99998 13.35C10.8031 13.35 11.39 13.1012 11.773 12.8618C11.9662 12.741 12.1079 12.6222 12.1969 12.5387C12.2413 12.4972 12.272 12.4649 12.2889 12.4464L12.3008 12.4331L12.3033 12.4303C12.615 12.0488 13.1766 11.9887 13.5622 12.2972C13.9503 12.6077 14.0133 13.1741 13.7028 13.5622L13 13C13.7028 13.5622 13.7028 13.5622 13.7028 13.5622L13.7016 13.5636L13.7004 13.5651L13.6977 13.5685L13.691 13.5767L13.6729 13.5983C13.6587 13.6149 13.6401 13.6361 13.6173 13.661C13.5717 13.7109 13.5087 13.7763 13.428 13.8519C13.2671 14.0028 13.0337 14.1965 12.727 14.3882C12.1099 14.7739 11.1969 15.15 9.99998 15.15C8.80307 15.15 7.89003 14.7739 7.27298 14.3882C6.96624 14.1965 6.73286 14.0028 6.57193 13.8519C6.49129 13.7763 6.42822 13.7109 6.38263 13.661C6.35981 13.6361 6.3413 13.6149 6.32708 13.5983L6.30895 13.5767L6.30228 13.5685L6.29954 13.5651L6.29832 13.5636C6.29832 13.5636 6.2972 13.5622 6.99998 13L6.2972 13.5622C5.98669 13.1741 6.04962 12.6077 6.43775 12.2972Z"
    fill="#C5D0DB"
  />
                <path
    d="M8.24997 8.25C8.24997 8.94036 7.69033 9.5 6.99997 9.5C6.30961 9.5 5.74997 8.94036 5.74997 8.25C5.74997 7.55964 6.30961 7 6.99997 7C7.69033 7 8.24997 7.55964 8.24997 8.25Z"
    fill="#C5D0DB"
  />
                <path
    d="M13 9.5C13.6903 9.5 14.25 8.94036 14.25 8.25C14.25 7.55964 13.6903 7 13 7C12.3096 7 11.75 7.55964 11.75 8.25C11.75 8.94036 12.3096 9.5 13 9.5Z"
    fill="#C5D0DB"
  />
                <path
    fill-rule="evenodd"
    clip-rule="evenodd"
    d="M9.99998 0.100006C4.53236 0.100006 0.0999756 4.53239 0.0999756 10C0.0999756 15.4676 4.53236 19.9 9.99998 19.9C15.4676 19.9 19.9 15.4676 19.9 10C19.9 4.53239 15.4676 0.100006 9.99998 0.100006ZM1.89998 10C1.89998 5.5265 5.52647 1.90001 9.99998 1.90001C14.4735 1.90001 18.1 5.5265 18.1 10C18.1 14.4735 14.4735 18.1 9.99998 18.1C5.52647 18.1 1.89998 14.4735 1.89998 10Z"
    fill="#C5D0DB"
  />
              </svg>
